<svg height="21" viewBox="0 0 160 21" width="160" xmlns="http://www.w3.org/2000/svg"><g fill="none"><path d="m68.2477876 2.40707965h4.1297935l-10.4778761 18.35988205h-5.380531l3.020649-5.2861357-8.0235988-13.07374635h5.5221239l5.1681416 8.51917405 4.1297935-7.38643069c.3775811-.7079646 1.1091445-1.13274336 1.9115044-1.13274336z" fill="#fff"/><path d="m46.4660767 15.1740413v-12.74336283h-4.6961652v15.15044243c0 1.7699115 1.439528 3.2094396 3.2094395 3.2094396h6.2772862c1.3215339 0 2.3834808-1.0619469 2.3834808-2.3834809v-2.359882h-6.2772861c-.4955753 0-.8967552-.4011799-.8967552-.8731563z" fill="#fff"/><path d="m90.5014749 2.40707965c-1.2035398.02359882-2.2890855.80235988-2.6666666 1.93510324l-3.4690266 9.95870211-4.4129793-11.91740417h-5.1917405l7.0088496 18.35988197h5.4749263l6.5368731-18.35988197h-3.280236z" fill="#fff"/><path d="m32.8967552 11.6106195c0-.9675517-3.4926254-2.97345136-4.3421829-2.50147496-.8495576.4719764-.8259587 4.60176996 0 5.00294986.778761.3539823 4.3421829-1.6047198 4.3421829-2.5014749z" fill="#59c3e1"/><g fill="#fff"><path d="m32.3303835 7.12684366c1.2979351 0 2.359882 1.0619469 2.359882 2.359882v4.20058994c0 1.2979351-1.0619469 2.359882-2.359882 2.359882h-4.20059c-1.2979351 0-2.359882-1.0619469-2.359882-2.359882v-4.20058994c0-1.2979351 1.0619469-2.359882 2.359882-2.359882zm0-4.71976401h-4.20059c-3.9174041 0-7.079646 3.16224188-7.079646 7.07964601v4.20058994c0 3.9174042 3.1622419 7.0796461 7.079646 7.0796461h4.20059c3.9174041 0 7.079646-3.1622419 7.079646-7.0796461v-4.20058994c0-3.91740413-3.1622419-7.07964601-7.079646-7.07964601z"/><path d="m101.640118 3.09144543c-.566372 1.4159292-1.085546 2.78466076-1.6519174 3.94100295l-1.7463127 13.68731562h-2.4070796l1.1563421-9.0147493-1.0855457 1.321534-1.5103245-1.8879056c2.2890856-2.69026552 3.9646018-5.49852511 4.9321534-8.54277289zm6.135693 10.73746317c1.179941 1.6047197 2.713865 2.8082595 4.861357 3.8938053l-1.699115 2.1002949c-1.935103-1.3923303-3.067847-2.5014749-3.917404-3.7286135l-.566372 4.6725664h-2.407079l.566371-4.6725664c-1.439528 1.4631268-3.115044 2.6902655-4.9321531 3.6578171l-1.0383481-2.1238938c2.4778762-1.1327434 3.9646022-2.100295 5.5457232-3.79941h-4.082596l.283186-2.2654868h4.79056l.188791-1.4159292h-4.0118l.896755-7.03244835h10.359882l-.873156 7.03244835h-3.964602l-.165192 1.4159292h4.81416l-.283186 2.2654868zm-3.563422-6.04129798h5.286136l.283186-2.31268437h-5.286136z"/><path d="m122.241888 10.9970501c.967552.9911505 1.864307 2.0294986 2.690265 3.1150443l-1.935103 1.9587021c-.471976-.7079646-1.179941-1.6283186-1.840708-2.4306785l-.896755 7.0324484h-2.454277l.825958-6.6076696c-.967551 1.2507374-2.005899 2.4306784-3.138643 3.5162241l-1.651917-1.9115044c1.840708-1.6047197 3.445428-3.4454277 4.814159-5.4749262h-2.973451l.306785-2.47787614h3.445427l.21239-1.74631269-3.020649.37758113v-2.43067847c2.548672-.2359882 6.112094-.7079646 8.542773-1.2979351l.117994 2.38348082c-.896755.18879056-2.0059.37758112-3.185841.56637168l-.283186 2.14749263h3.327434l-.306785 2.47787614h-3.327434l-.18879 1.5811209zm5.050147 5.1681416h-2.501475l1.486726-11.82300881h2.477876zm6.135694-13.68731559-1.887906 15.26843659c-.259587 2.0058997-1.061947 2.7374631-2.973451 2.9734513l-1.463127.1887906-.471977-2.5250738 1.274337-.1651917c.849557-.1415929 1.109144-.5427729 1.20354-1.3451328l1.79351-14.37168137z"/><path d="m151.032448 16.0943953c-.070796.2831858-.165191.5899705-.259587.8731563-.259587.8259587-.40118.9911505-.637168.9911505s-.330383-.1651918-.566371-.7079646c-.165192-.4719764-.306785-.9439528-.424779-1.4395281 1.463127-2.1474926 2.572271-4.5309734 3.516224-7.31563418l-2.123894-.56637168c-.471976 1.58112094-1.109144 3.11504426-1.864307 4.57817106-.117994-1.7699115-.141593-3.51622416-.047197-5.28613566h4.743363l.283185-2.38348083h-1.486725l.613569-.4719764c-.471976-.73156342-.99115-1.4159292-1.557522-2.07669616l-1.769912 1.179941c.330384.4719764.637169.84955752.943953 1.36873156h-1.651917l.18879-2.359882h-2.359882l-.165191 2.38348082h-8.873157l-.731563 5.73451327c-.566372 4.4837758-1.463127 6.3244838-3.256637 9.0383481l2.312684 1.0147493c1.510325-2.4542773 2.289086-4.1297936 2.879056-7.1504425h.967552c-.330384.7551622-.707965 1.4867256-1.061947 2.0766961.613569.40118 1.227138.8495576 1.887905 1.321534-.778761.4719764-1.769911.9439528-3.091445 1.5811209l.920354 2.0294985c1.581121-.8023599 2.831858-1.5103245 3.823009-2.3126843l1.038348.8731563 1.557522-1.9351032c-.283186-.2359882-.566372-.40118-.849557-.6371682.707964-.8731563 1.250737-1.8407079 1.651917-2.9026548l.283186-2.1946903h-3.091446l.448378-1.1563422h2.501475l.259587-2.14749262h-6.088496l-.283186 2.14749262h1.345133c-.117994.4011799-.283186.7551622-.424779 1.1563422h-1.486725l.094395-.7787611.424779-3.39823006h6.678466c-.141593 3.56342186 0 6.23008846.353982 8.33038346-1.061947 1.2743363-2.218289 2.4306785-3.469026 3.5162242l1.699115 1.5575221c.873156-.7551622 1.699115-1.5811209 2.454277-2.4542773l.023599.0235989c.825959 2.0294985 1.415929 2.5250737 2.477876 2.5250737s1.887906-.3067846 2.666667-2.5014749c.235988-.5663717.424778-1.1563422.542772-1.7463127zm-9.109144-2.5958702h1.557522c-.283186.6843658-.660767 1.3215339-1.109145 1.8879056-.353982-.2359882-.707964-.4719764-.99115-.6843658z"/><path d="m10.7374631 2.40707965h-10.52507372v15.64601765.1179941.1179941c0 1.3687316 1.10914454 2.4542773 2.45427729 2.4542773h.1179941.1179941 2.05309734v-13.61651914h5.99410029c3.7522124 0 3.9882006 5.73451324 0 5.73451324h-3.23303834l-1.67551622 4.7905605h4.71976396c4.5309735 0 7.8584071-3.2566372 7.8584071-7.6460177 0-4.38938053-3.3510324-7.59882005-7.8820059-7.59882005z"/><path d="m159.952802 2.38348083c0 1.34513274-.873156 2.2418879-2.218289 2.2418879-1.368731 0-2.218289-.8259587-2.218289-2.21828908 0-1.39233039.849558-2.21828909 2.218289-2.21828909 1.345133 0 2.218289.8259587 2.218289 2.19469027zm-.448377 0c0-1.13274337-.637168-1.79351033-1.746313-1.79351033-1.109144 0-1.746313.7079646-1.746313 1.79351033 0 1.13274336.637169 1.7699115 1.746313 1.7699115 1.109145 0 1.746313-.66076696 1.746313-1.7699115zm-1.345133.2359882.684366.96755162h-.566372l-.58997-.89675516h-.353983v.89675516h-.471976v-2.40707965h.896755c.566372 0 .967552.16519174.967552.75516224-.023599.33038349-.235988.63716815-.566372.68436579zm-.448378-.30678466c.235989 0 .495576-.07079646.495576-.37758113 0-.30678466-.188791-.37758112-.495576-.37758112h-.377581v.75516225z"/></g></g></svg>